<svg xmlns="http://www.w3.org/2000/svg" viewBox="0 0 119.74 119.74"><defs><style>.cls-1{fill:#1da1f2;}.cls-2{fill:#fff;}.cls-3{fill:none;}</style></defs><g><g><circle class="cls-1" cx="59.87" cy="59.87" r="59.87"/><g><path class="cls-2" d="M45.93,90.17c28.21,0,43.64-23.37,43.64-43.63,0-.67,0-1.33,0-2a31.38,31.38,0,0,0,7.65-7.94A30.66,30.66,0,0,1,88.36,39a15.44,15.44,0,0,0,6.75-8.48,31.09,31.09,0,0,1-9.74,3.72,15.35,15.35,0,0,0-26.14,14,43.53,43.53,0,0,1-31.6-16,15.36,15.36,0,0,0,4.74,20.48,15.33,15.33,0,0,1-7-1.92V51A15.34,15.34,0,0,0,37.72,66a15.31,15.31,0,0,1-6.93.27A15.38,15.38,0,0,0,45.12,76.93a30.8,30.8,0,0,1-19,6.57,29.8,29.8,0,0,1-3.65-.22,43.47,43.47,0,0,0,23.51,6.88"/><rect class="cls-3" width="119.6" height="119.6"/></g></g></g></svg>